<?xml version="1.0" encoding="UTF-8"?>
<svg width="40" height="40" viewBox="0 0 40 40" fill="none" xmlns="http://www.w3.org/2000/svg">
  <rect width="40" height="40" rx="20" fill="#0F172A"/>
  <path d="M30.5 22.8C30.5 23.5732 29.8732 24.2 29.1 24.2H10.9C10.1268 24.2 9.5 23.5732 9.5 22.8C9.5 22.0268 10.1268 21.4 10.9 21.4H29.1C29.8732 21.4 30.5 22.0268 30.5 22.8Z" fill="#3B82F6"/>
  <path d="M27.8 17.6C27.8 18.3732 27.1732 19 26.4 19H13.6C12.8268 19 12.2 18.3732 12.2 17.6C12.2 16.8268 12.8268 16.2 13.6 16.2H26.4C27.1732 16.2 27.8 16.8268 27.8 17.6Z" fill="#3B82F6"/>
  <rect x="12.2" y="17.6" width="15.6" height="5.2" rx="2" fill="#3B82F6"/>
  <circle cx="13" cy="22.8" r="2" fill="#1E293B" stroke="#3B82F6" stroke-width="1"/>
  <circle cx="27" cy="22.8" r="2" fill="#1E293B" stroke="#3B82F6" stroke-width="1"/>
  <path d="M12.2 14L14.6 17.2" stroke="#3B82F6" stroke-width="1" stroke-linecap="round"/>
  <path d="M27.8 14L25.4 17.2" stroke="#3B82F6" stroke-width="1" stroke-linecap="round"/>
  <path d="M12.5 26.5H27.5" stroke="#3B82F6" stroke-width="1" stroke-linecap="round"/>
  <path d="M15.9 13.3H24.1" stroke="#3B82F6" stroke-width="1" stroke-linecap="round"/>
  <path d="M11.3 28.8C11.3 28.3582 11.6582 28 12.1 28H27.9C28.3418 28 28.7 28.3582 28.7 28.8V28.8C28.7 29.2418 28.3418 29.6 27.9 29.6H12.1C11.6582 29.6 11.3 29.2418 11.3 28.8V28.8Z" fill="#3B82F6"/>
</svg>